<svg width="42" height="39" viewBox="0 0 42 39" fill="none" xmlns="http://www.w3.org/2000/svg">
<path d="M13.702 33.1534C14.8311 33.1534 15.7464 32.1753 15.7464 30.9688C15.7464 29.7623 14.8311 28.7843 13.702 28.7843C12.5728 28.7843 11.6575 29.7623 11.6575 30.9688C11.6575 32.1753 12.5728 33.1534 13.702 33.1534Z" fill="#3985C6"/>
<path d="M26.9911 33.1534C28.1203 33.1534 29.0356 32.1753 29.0356 30.9688C29.0356 29.7623 28.1203 28.7843 26.9911 28.7843C25.862 28.7843 24.9467 29.7623 24.9467 30.9688C24.9467 32.1753 25.862 33.1534 26.9911 33.1534Z" fill="#3985C6"/>
<path d="M8.8847 11.308H31.8085L28.4351 23.9237C28.3147 24.3815 28.057 24.7845 27.7015 25.0706C27.346 25.3568 26.9124 25.5102 26.4673 25.5075H14.2259C13.7808 25.5102 13.3472 25.3568 12.9917 25.0706C12.6362 24.7845 12.3785 24.3815 12.2581 23.9237L7.63245 6.63857C7.57132 6.41023 7.44221 6.20939 7.26466 6.06649C7.08712 5.9236 6.87082 5.84643 6.64854 5.84668H4.50183" stroke="#3985C6" stroke-width="1.5" stroke-linecap="round" stroke-linejoin="round"/>
<path d="M31.8084 11.308H8.88464L9.15509 12L12.258 23.9237C12.3784 24.3815 12.6361 24.7845 12.9917 25.0706C13.3472 25.3568 13.7808 25.5102 14.2259 25.5075H26.4672C26.9123 25.5102 27.3459 25.3568 27.7014 25.0706C28.0569 24.7845 28.3147 24.3815 28.435 23.9237L31.8084 11.308Z" fill="#3985C6" stroke="#3985C6" stroke-width="1.5" stroke-linecap="round" stroke-linejoin="round"/>
<circle cx="31.1552" cy="9.5" r="8" fill="#3985C6" stroke="white" stroke-width="2"/>
<g clip-path="url(#clip0_2_1141)">
<path d="M28.8218 9.5L30.4884 11.1667L33.8218 7.83334" stroke="white" stroke-width="1.5" stroke-linecap="round" stroke-linejoin="round"/>
</g>
<defs>
<clipPath id="clip0_2_1141">
<rect width="8" height="8" fill="white" transform="translate(27.1552 5.5)"/>
</clipPath>
</defs>
</svg>
