<svg width="30" height="29" viewBox="0 0 30 29" fill="none" xmlns="http://www.w3.org/2000/svg">
<path d="M10.702 28.1534C11.8311 28.1534 12.7464 27.1753 12.7464 25.9688C12.7464 24.7623 11.8311 23.7843 10.702 23.7843C9.57282 23.7843 8.65747 24.7623 8.65747 25.9688C8.65747 27.1753 9.57282 28.1534 10.702 28.1534Z" fill="#3985C6"/>
<path d="M23.9911 28.1534C25.1203 28.1534 26.0356 27.1753 26.0356 25.9688C26.0356 24.7623 25.1203 23.7843 23.9911 23.7843C22.862 23.7843 21.9467 24.7623 21.9467 25.9688C21.9467 27.1753 22.862 28.1534 23.9911 28.1534Z" fill="#3985C6"/>
<path d="M5.8847 6.30801H28.8085L25.4351 18.9237C25.3147 19.3815 25.057 19.7845 24.7015 20.0706C24.346 20.3568 23.9124 20.5102 23.4673 20.5075H11.2259C10.7808 20.5102 10.3472 20.3568 9.99172 20.0706C9.6362 19.7845 9.37846 19.3815 9.2581 18.9237L4.63245 1.63857C4.57132 1.41023 4.44221 1.20939 4.26466 1.06649C4.08712 0.923598 3.87082 0.84643 3.64854 0.84668H1.50183" stroke="#3985C6" stroke-width="1.5" stroke-linecap="round" stroke-linejoin="round"/>
<path d="M28.8084 6.30801H5.88464L6.15509 7.00003L9.25804 18.9237C9.37841 19.3815 9.63615 19.7845 9.99166 20.0706C10.3472 20.3568 10.7808 20.5102 11.2259 20.5075H23.4672C23.9123 20.5102 24.3459 20.3568 24.7014 20.0706C25.0569 19.7845 25.3147 19.3815 25.435 18.9237L28.8084 6.30801Z" fill="#3985C6" stroke="#3985C6" stroke-width="1.5" stroke-linecap="round" stroke-linejoin="round"/>
</svg>
