<svg width="45" height="42" viewBox="0 0 45 42" fill="none" xmlns="http://www.w3.org/2000/svg">
<path d="M18.0984 34.6533C19.2276 34.6533 20.1429 33.6753 20.1429 32.4688C20.1429 31.2623 19.2276 30.2843 18.0984 30.2843C16.9693 30.2843 16.054 31.2623 16.054 32.4688C16.054 33.6753 16.9693 34.6533 18.0984 34.6533Z" fill="#3985C6"/>
<path d="M31.3876 34.6533C32.5168 34.6533 33.4321 33.6753 33.4321 32.4688C33.4321 31.2623 32.5168 30.2843 31.3876 30.2843C30.2585 30.2843 29.3431 31.2623 29.3431 32.4688C29.3431 33.6753 30.2585 34.6533 31.3876 34.6533Z" fill="#3985C6"/>
<path d="M13.2812 12.808H36.205L32.8316 25.4237C32.7112 25.8815 32.4535 26.2845 32.098 26.5706C31.7425 26.8568 31.3088 27.0102 30.8638 27.0075H18.6224C18.1773 27.0102 17.7437 26.8568 17.3882 26.5706C17.0327 26.2845 16.7749 25.8815 16.6546 25.4237L12.0289 8.13856C11.9678 7.91021 11.8387 7.70938 11.6611 7.56648C11.4836 7.42358 11.2673 7.34641 11.045 7.34667H8.89832" stroke="#3985C6" stroke-width="1.5" stroke-linecap="round" stroke-linejoin="round"/>
</svg>
