<svg width="29" height="29" viewBox="0 0 29 29" fill="none" xmlns="http://www.w3.org/2000/svg">
<path d="M10.0984 28.6533C11.2276 28.6533 12.1429 27.6753 12.1429 26.4688C12.1429 25.2623 11.2276 24.2843 10.0984 24.2843C8.9693 24.2843 8.05396 25.2623 8.05396 26.4688C8.05396 27.6753 8.9693 28.6533 10.0984 28.6533Z" fill="#3985C6"/>
<path d="M23.3876 28.6533C24.5168 28.6533 25.4321 27.6753 25.4321 26.4688C25.4321 25.2623 24.5168 24.2843 23.3876 24.2843C22.2585 24.2843 21.3431 25.2623 21.3431 26.4688C21.3431 27.6753 22.2585 28.6533 23.3876 28.6533Z" fill="#3985C6"/>
<path d="M5.28118 6.808H28.205L24.8316 19.4237C24.7112 19.8815 24.4535 20.2845 24.098 20.5706C23.7425 20.8568 23.3088 21.0102 22.8638 21.0075H10.6224C10.1773 21.0102 9.74371 20.8568 9.3882 20.5706C9.03269 20.2845 8.77495 19.8815 8.65458 19.4237L4.02893 2.13856C3.96781 1.91021 3.83869 1.70938 3.66115 1.56648C3.4836 1.42358 3.2673 1.34641 3.04503 1.34667H0.898315" stroke="#3985C6" stroke-width="1.5" stroke-linecap="round" stroke-linejoin="round"/>
</svg>
